# xmcd
#
# Track frame offsets:
#	150
#	17731
#	37092
#	59508
#	76841
#	97295
#	115129
#	134359
#	150152
#	167172
#	185619
#	204971
#	220116
#	237268
#	258728
#	278192
#	294397
#
# Disc length: 4108 seconds
#
# Revision: 0
# Processed by: cddbd v1.5.2PL0 Copyright (c) Steve Scherf et al.
# Submitted via: audiograbber 1.83.01
#
DISCID=f5100a11
DTITLE=Various Artist - Dance R&B Anthems 2004
DYEAR=2004
DGENRE=R&B
TTITLE0=The J-Wess Project - Bang This
TTITLE1=Sean Paul - Get Busy
TTITLE2=Snoop Dogg - Beautiful
TTITLE3=Boyz II Men - Rolll With Me
TTITLE4=Babyface - There She Goes
TTITLE5=The Product G&B - Cluck Cluck
TTITLE6=Brian McKnight feat Nelly - All Night Long
TTITLE7=Dru Hill feat N.O.R.E. - On Me
TTITLE8=WC feat Case - Flirt
TTITLE9=Damozel - So Fine
TTITLE10=Dante - Lawdy Lawdy
TTITLE11=Beenie Man feat Janet Jackson - Feel It Boy
TTITLE12=Glenn Lewis feat Paul Cain - Don't You Forget It
TTITLE13=Craig David - Hidden Agenda
TTITLE14=Eve - Satisfaction
TTITLE15=Damian Marley - And Be Loved
TTITLE16=PYT - Same Ol' Same Ol'
EXTD=
EXTT0=
EXTT1=
EXTT2=
EXTT3=
EXTT4=
EXTT5=
EXTT6=
EXTT7=
EXTT8=
EXTT9=
EXTT10=
EXTT11=
EXTT12=
EXTT13=
EXTT14=
EXTT15=
EXTT16=
PLAYORDER=
